<mxfile host="Electron" agent="Mozilla/5.0 (Windows NT 10.0; Win64; x64) AppleWebKit/537.36 (KHTML, like Gecko) draw.io/25.0.2 Chrome/128.0.6613.186 Electron/32.2.5 Safari/537.36" version="25.0.2">
  <diagram name="Page-1" id="jsxmwJwDWn9n-yPzKSw_">
    <mxGraphModel dx="1167" dy="728" grid="1" gridSize="10" guides="1" tooltips="1" connect="1" arrows="1" fold="1" page="1" pageScale="1" pageWidth="850" pageHeight="1100" math="0" shadow="0">
      <root>
        <mxCell id="0" />
        <mxCell id="1" parent="0" />
        <mxCell id="nsWcYGKw_cv_0WnDfCw1-2" style="edgeStyle=orthogonalEdgeStyle;rounded=0;orthogonalLoop=1;jettySize=auto;html=1;entryX=0.5;entryY=0;entryDx=0;entryDy=0;" edge="1" parent="1" source="nsWcYGKw_cv_0WnDfCw1-1" target="nsWcYGKw_cv_0WnDfCw1-3">
          <mxGeometry relative="1" as="geometry">
            <mxPoint x="412.5" y="180" as="targetPoint" />
            <Array as="points">
              <mxPoint x="409" y="170" />
              <mxPoint x="412" y="170" />
            </Array>
          </mxGeometry>
        </mxCell>
        <mxCell id="nsWcYGKw_cv_0WnDfCw1-1" value="START" style="ellipse;whiteSpace=wrap;html=1;" vertex="1" parent="1">
          <mxGeometry x="365.5" y="100" width="95" height="70" as="geometry" />
        </mxCell>
        <mxCell id="nsWcYGKw_cv_0WnDfCw1-4" style="edgeStyle=orthogonalEdgeStyle;rounded=0;orthogonalLoop=1;jettySize=auto;html=1;entryX=0;entryY=0.5;entryDx=0;entryDy=0;" edge="1" parent="1" source="nsWcYGKw_cv_0WnDfCw1-3" target="nsWcYGKw_cv_0WnDfCw1-11">
          <mxGeometry relative="1" as="geometry">
            <mxPoint x="540" y="250" as="targetPoint" />
          </mxGeometry>
        </mxCell>
        <mxCell id="nsWcYGKw_cv_0WnDfCw1-6" style="edgeStyle=orthogonalEdgeStyle;rounded=0;orthogonalLoop=1;jettySize=auto;html=1;" edge="1" parent="1" source="nsWcYGKw_cv_0WnDfCw1-3">
          <mxGeometry relative="1" as="geometry">
            <mxPoint x="412.5" y="370" as="targetPoint" />
          </mxGeometry>
        </mxCell>
        <mxCell id="nsWcYGKw_cv_0WnDfCw1-3" value="Are there previous appointments for the&lt;div&gt;&amp;nbsp;specified doctor on the specified day?&lt;/div&gt;" style="rhombus;whiteSpace=wrap;html=1;" vertex="1" parent="1">
          <mxGeometry x="328.5" y="200" width="168" height="140" as="geometry" />
        </mxCell>
        <mxCell id="nsWcYGKw_cv_0WnDfCw1-5" value="No" style="text;html=1;align=center;verticalAlign=middle;resizable=0;points=[];autosize=1;strokeColor=none;fillColor=none;" vertex="1" parent="1">
          <mxGeometry x="490" y="240" width="40" height="30" as="geometry" />
        </mxCell>
        <mxCell id="nsWcYGKw_cv_0WnDfCw1-7" value="Yes" style="text;html=1;align=center;verticalAlign=middle;resizable=0;points=[];autosize=1;strokeColor=none;fillColor=none;" vertex="1" parent="1">
          <mxGeometry x="405" y="340" width="40" height="30" as="geometry" />
        </mxCell>
        <mxCell id="nsWcYGKw_cv_0WnDfCw1-10" value="" style="edgeStyle=orthogonalEdgeStyle;rounded=0;orthogonalLoop=1;jettySize=auto;html=1;" edge="1" parent="1" source="nsWcYGKw_cv_0WnDfCw1-8" target="nsWcYGKw_cv_0WnDfCw1-9">
          <mxGeometry relative="1" as="geometry" />
        </mxCell>
        <mxCell id="nsWcYGKw_cv_0WnDfCw1-8" value="Get Previous Appointment" style="shape=parallelogram;perimeter=parallelogramPerimeter;whiteSpace=wrap;html=1;fixedSize=1;" vertex="1" parent="1">
          <mxGeometry x="353" y="370" width="120" height="60" as="geometry" />
        </mxCell>
        <mxCell id="nsWcYGKw_cv_0WnDfCw1-13" value="" style="edgeStyle=orthogonalEdgeStyle;rounded=0;orthogonalLoop=1;jettySize=auto;html=1;" edge="1" parent="1" source="nsWcYGKw_cv_0WnDfCw1-9" target="nsWcYGKw_cv_0WnDfCw1-12">
          <mxGeometry relative="1" as="geometry" />
        </mxCell>
        <mxCell id="nsWcYGKw_cv_0WnDfCw1-9" value="last_appointment&lt;div&gt;_token = previous_&lt;/div&gt;&lt;div&gt;appointment_token&lt;/div&gt;" style="whiteSpace=wrap;html=1;" vertex="1" parent="1">
          <mxGeometry x="344" y="470" width="137" height="60" as="geometry" />
        </mxCell>
        <mxCell id="nsWcYGKw_cv_0WnDfCw1-16" style="edgeStyle=orthogonalEdgeStyle;rounded=0;orthogonalLoop=1;jettySize=auto;html=1;" edge="1" parent="1" source="nsWcYGKw_cv_0WnDfCw1-11">
          <mxGeometry relative="1" as="geometry">
            <mxPoint x="608.5" y="630" as="targetPoint" />
          </mxGeometry>
        </mxCell>
        <mxCell id="nsWcYGKw_cv_0WnDfCw1-11" value="&lt;div&gt;token_assigned = 1&lt;/div&gt;" style="whiteSpace=wrap;html=1;" vertex="1" parent="1">
          <mxGeometry x="540" y="240" width="137" height="60" as="geometry" />
        </mxCell>
        <mxCell id="nsWcYGKw_cv_0WnDfCw1-15" value="" style="edgeStyle=orthogonalEdgeStyle;rounded=0;orthogonalLoop=1;jettySize=auto;html=1;" edge="1" parent="1" source="nsWcYGKw_cv_0WnDfCw1-12" target="nsWcYGKw_cv_0WnDfCw1-14">
          <mxGeometry relative="1" as="geometry" />
        </mxCell>
        <mxCell id="nsWcYGKw_cv_0WnDfCw1-12" value="token_assigned = last_appointment_token&lt;div&gt;+ 1&lt;/div&gt;" style="whiteSpace=wrap;html=1;" vertex="1" parent="1">
          <mxGeometry x="344.25" y="550" width="137.5" height="60" as="geometry" />
        </mxCell>
        <mxCell id="nsWcYGKw_cv_0WnDfCw1-20" style="edgeStyle=orthogonalEdgeStyle;rounded=0;orthogonalLoop=1;jettySize=auto;html=1;entryX=0.5;entryY=0;entryDx=0;entryDy=0;" edge="1" parent="1" source="nsWcYGKw_cv_0WnDfCw1-14" target="nsWcYGKw_cv_0WnDfCw1-19">
          <mxGeometry relative="1" as="geometry" />
        </mxCell>
        <mxCell id="nsWcYGKw_cv_0WnDfCw1-14" value="Return&lt;div&gt;token_assigned&lt;/div&gt;" style="shape=parallelogram;perimeter=parallelogramPerimeter;whiteSpace=wrap;html=1;fixedSize=1;" vertex="1" parent="1">
          <mxGeometry x="353" y="660" width="120" height="60" as="geometry" />
        </mxCell>
        <mxCell id="nsWcYGKw_cv_0WnDfCw1-19" value="END" style="ellipse;whiteSpace=wrap;html=1;" vertex="1" parent="1">
          <mxGeometry x="365" y="750" width="95" height="70" as="geometry" />
        </mxCell>
        <mxCell id="nsWcYGKw_cv_0WnDfCw1-23" value="" style="endArrow=classic;html=1;rounded=0;" edge="1" parent="1" source="nsWcYGKw_cv_0WnDfCw1-24">
          <mxGeometry width="50" height="50" relative="1" as="geometry">
            <mxPoint x="490" y="650" as="sourcePoint" />
            <mxPoint x="410" y="630" as="targetPoint" />
          </mxGeometry>
        </mxCell>
        <mxCell id="nsWcYGKw_cv_0WnDfCw1-24" value="" style="shape=waypoint;sketch=0;fillStyle=solid;size=6;pointerEvents=1;points=[];fillColor=none;resizable=0;rotatable=0;perimeter=centerPerimeter;snapToPoint=1;" vertex="1" parent="1">
          <mxGeometry x="599" y="620" width="20" height="20" as="geometry" />
        </mxCell>
      </root>
    </mxGraphModel>
  </diagram>
</mxfile>
